<svg xmlns="http://www.w3.org/2000/svg" xmlns:xlink="http://www.w3.org/1999/xlink" viewBox="0 0 93.75 17.35"><defs><style>.cls-1{fill:url(#radial-gradient);}.cls-2{fill:url(#radial-gradient-2);}.cls-3{fill:url(#radial-gradient-3);}.cls-4{fill:url(#radial-gradient-4);}.cls-5{fill:url(#radial-gradient-5);}.cls-6{fill:url(#radial-gradient-6);}.cls-7{fill:url(#radial-gradient-7);}.cls-8{fill:url(#radial-gradient-8);}.cls-9{fill:url(#radial-gradient-9);}.cls-10{fill:url(#radial-gradient-10);}.cls-11{fill:url(#radial-gradient-11);}.cls-12{fill:url(#radial-gradient-12);}.cls-13{fill:url(#radial-gradient-13);}.cls-14{fill:url(#radial-gradient-14);}.cls-15{fill:url(#radial-gradient-15);}.cls-16{fill:url(#radial-gradient-16);}.cls-17{fill:url(#radial-gradient-17);}.cls-18{fill:url(#radial-gradient-18);}.cls-19{fill:url(#radial-gradient-19);}.cls-20{fill:url(#radial-gradient-20);}.cls-21{fill:url(#radial-gradient-21);}.cls-22{fill:url(#radial-gradient-22);}.cls-23{fill:url(#radial-gradient-23);}.cls-24{fill:url(#radial-gradient-24);}.cls-25{fill:url(#radial-gradient-25);}.cls-26{fill:url(#radial-gradient-26);}.cls-27{fill:url(#radial-gradient-27);}.cls-28{fill:url(#radial-gradient-28);}.cls-29{fill:url(#radial-gradient-29);}.cls-30{fill:url(#radial-gradient-30);}.cls-31{fill:url(#radial-gradient-31);}.cls-32{fill:url(#radial-gradient-32);}.cls-33{fill:url(#radial-gradient-33);}.cls-34{fill:url(#radial-gradient-34);}.cls-35{fill:url(#radial-gradient-35);}.cls-36{fill:url(#radial-gradient-36);}.cls-37{fill:url(#radial-gradient-37);}.cls-38{fill:url(#radial-gradient-38);}.cls-39{fill:url(#radial-gradient-39);}.cls-40{fill:url(#radial-gradient-40);}.cls-41{fill:url(#radial-gradient-41);}.cls-42{fill:url(#radial-gradient-42);}.cls-43{fill:url(#radial-gradient-43);}.cls-44{fill:url(#radial-gradient-44);}.cls-45{fill:url(#radial-gradient-45);}.cls-46{fill:url(#radial-gradient-46);}.cls-47{fill:url(#radial-gradient-47);}.cls-48{fill:url(#radial-gradient-48);}.cls-49{fill:url(#radial-gradient-49);}.cls-50{fill:url(#radial-gradient-50);}</style><radialGradient id="radial-gradient" cx="41.56" cy="6.36" r="6.36" gradientUnits="userSpaceOnUse"><stop offset="0" stop-color="#e3c865"/><stop offset="0.51" stop-color="#ffecb3"/><stop offset="1" stop-color="#d59c28"/></radialGradient><radialGradient id="radial-gradient-2" cx="52.3" cy="6.36" r="6.36" xlink:href="#radial-gradient"/><radialGradient id="radial-gradient-3" cx="19.81" cy="14.67" r="3.16" xlink:href="#radial-gradient"/><radialGradient id="radial-gradient-4" cx="18.55" cy="14.27" r="3.12" xlink:href="#radial-gradient"/><radialGradient id="radial-gradient-5" cx="34.25" cy="14.99" r="8.74" xlink:href="#radial-gradient"/><radialGradient id="radial-gradient-6" cx="39.71" cy="14.56" r="5.14" xlink:href="#radial-gradient"/><radialGradient id="radial-gradient-7" cx="37.94" cy="12.8" r="2.2" xlink:href="#radial-gradient"/><radialGradient id="radial-gradient-8" cx="27.99" cy="12.72" r="3.94" xlink:href="#radial-gradient"/><radialGradient id="radial-gradient-9" cx="37.26" cy="16.06" r="2.6" xlink:href="#radial-gradient"/><radialGradient id="radial-gradient-10" cx="21.75" cy="7.58" r="1.3" xlink:href="#radial-gradient"/><radialGradient id="radial-gradient-11" cx="23.15" cy="6.98" r="1.03" xlink:href="#radial-gradient"/><radialGradient id="radial-gradient-12" cx="24.77" cy="8.8" r="1.38" xlink:href="#radial-gradient"/><radialGradient id="radial-gradient-13" cx="25.01" cy="10.05" r="0" xlink:href="#radial-gradient"/><radialGradient id="radial-gradient-14" cx="25.37" cy="10.09" r="0.4" xlink:href="#radial-gradient"/><radialGradient id="radial-gradient-15" cx="26.23" cy="9.59" r="0.95" xlink:href="#radial-gradient"/><radialGradient id="radial-gradient-16" cx="27.76" cy="12.19" r="1.55" xlink:href="#radial-gradient"/><radialGradient id="radial-gradient-17" cx="28.37" cy="13.37" r="0.67" xlink:href="#radial-gradient"/><radialGradient id="radial-gradient-18" cx="30.09" cy="12.5" r="2.36" xlink:href="#radial-gradient"/><radialGradient id="radial-gradient-19" cx="31.78" cy="11.86" r="0.88" xlink:href="#radial-gradient"/><radialGradient id="radial-gradient-20" cx="33.65" cy="12.35" r="1" xlink:href="#radial-gradient"/><radialGradient id="radial-gradient-21" cx="35.52" cy="12.85" r="0.99" xlink:href="#radial-gradient"/><radialGradient id="radial-gradient-22" cx="41.21" cy="12.21" r="3.95" xlink:href="#radial-gradient"/><radialGradient id="radial-gradient-23" cx="22.37" cy="11.21" r="1.56" xlink:href="#radial-gradient"/><radialGradient id="radial-gradient-24" cx="21.26" cy="11.82" r="0.84" xlink:href="#radial-gradient"/><radialGradient id="radial-gradient-25" cx="74" cy="14.67" r="3.16" xlink:href="#radial-gradient"/><radialGradient id="radial-gradient-26" cx="75.26" cy="14.27" r="3.12" xlink:href="#radial-gradient"/><radialGradient id="radial-gradient-27" cx="59.57" cy="14.99" r="8.74" xlink:href="#radial-gradient"/><radialGradient id="radial-gradient-28" cx="54.1" cy="14.56" r="5.14" xlink:href="#radial-gradient"/><radialGradient id="radial-gradient-29" cx="55.87" cy="12.8" r="2.2" xlink:href="#radial-gradient"/><radialGradient id="radial-gradient-30" cx="65.82" cy="12.72" r="3.94" xlink:href="#radial-gradient"/><radialGradient id="radial-gradient-31" cx="56.55" cy="16.06" r="2.6" xlink:href="#radial-gradient"/><radialGradient id="radial-gradient-32" cx="72.06" cy="7.58" r="1.3" xlink:href="#radial-gradient"/><radialGradient id="radial-gradient-33" cx="70.66" cy="6.98" r="1.03" xlink:href="#radial-gradient"/><radialGradient id="radial-gradient-34" cx="69.04" cy="8.8" r="1.38" xlink:href="#radial-gradient"/><radialGradient id="radial-gradient-35" cx="68.8" cy="10.05" r="0" xlink:href="#radial-gradient"/><radialGradient id="radial-gradient-36" cx="68.44" cy="10.09" r="0.4" xlink:href="#radial-gradient"/><radialGradient id="radial-gradient-37" cx="67.59" cy="9.59" r="0.95" xlink:href="#radial-gradient"/><radialGradient id="radial-gradient-38" cx="66.05" cy="12.19" r="1.55" xlink:href="#radial-gradient"/><radialGradient id="radial-gradient-39" cx="65.44" cy="13.37" r="0.67" xlink:href="#radial-gradient"/><radialGradient id="radial-gradient-40" cx="63.72" cy="12.5" r="2.36" xlink:href="#radial-gradient"/><radialGradient id="radial-gradient-41" cx="62.03" cy="11.86" r="0.88" xlink:href="#radial-gradient"/><radialGradient id="radial-gradient-42" cx="60.16" cy="12.35" r="1" xlink:href="#radial-gradient"/><radialGradient id="radial-gradient-43" cx="58.29" cy="12.85" r="0.99" xlink:href="#radial-gradient"/><radialGradient id="radial-gradient-44" cx="52.6" cy="12.21" r="3.95" xlink:href="#radial-gradient"/><radialGradient id="radial-gradient-45" cx="71.44" cy="11.21" r="1.56" xlink:href="#radial-gradient"/><radialGradient id="radial-gradient-46" cx="72.55" cy="11.82" r="0.84" xlink:href="#radial-gradient"/><radialGradient id="radial-gradient-47" cx="8.96" cy="13.39" r="4.98" xlink:href="#radial-gradient"/><radialGradient id="radial-gradient-48" cx="84.86" cy="13.39" r="4.98" xlink:href="#radial-gradient"/><radialGradient id="radial-gradient-49" cx="1.93" cy="13.39" r="1.93" xlink:href="#radial-gradient"/><radialGradient id="radial-gradient-50" cx="91.82" cy="13.39" r="1.93" xlink:href="#radial-gradient"/></defs><g id="Layer_2" data-name="Layer 2"><g id="_ÎÓÈ_1" data-name="—ÎÓÈ_1"><path class="cls-1" d="M41.59.4c0-.12-.11-.23-.25-.18a3.69,3.69,0,0,0-1.43,1.19.18.18,0,0,0-.16,0c-.4.22-.56.83-.64,1.4C39,3.18,39,4,38.56,4.14c-.22.06-.18.37-.19.51a2.54,2.54,0,0,0,1,2.34c.41.37.86.7,1.25,1.09a11.94,11.94,0,0,1,.93,1.17A8.93,8.93,0,0,1,39.19,8,3.54,3.54,0,0,0,35.4,6.92a.3.3,0,0,0,0,.57c.12.13.25.26.38.38s.35.57.63.8a1.5,1.5,0,0,0,.61.29,4,4,0,0,0-.3.42,3.58,3.58,0,0,1-.39.29.25.25,0,0,0,0,.39h0l0,0a.68.68,0,0,1,.12.12.14.14,0,0,0,.08,0l.1.1a1.51,1.51,0,0,1,.23.21c.1.11.22.18.33.28h0a1.77,1.77,0,0,0,1.16.45,2.71,2.71,0,0,0,.9,0,1.09,1.09,0,0,1,.26,0,.57.57,0,0,0,0,.69c.41.53,1.19.12,1.65-.05.8-.29,1.69-.35,2.51-.6a.67.67,0,0,0,.17-.08,1.76,1.76,0,0,0,.63,1.23,3.44,3.44,0,0,0,2,.28c.06,0,.09-.06.07-.12-.25-.48-.17-1-.44-1.39l.11,0a2,2,0,0,0,1.12-1h0a.53.53,0,0,0,.14-.12.51.51,0,0,0,.19-.31.27.27,0,0,0,0-.22,2.16,2.16,0,0,0-2.09-1.35,1.71,1.71,0,0,0-1.09.15l-.14.09a3.22,3.22,0,0,1,.57-2.08c.15-.24,1-1.17,1.45-1.09,0,0,0,0,0,0s.08.08.11.12a.09.09,0,0,0,.07,0h0a.14.14,0,0,0,.1-.1A.15.15,0,0,0,47,5.24c.13-1.25.12-2-1.08-2.64a2.51,2.51,0,0,0-2.76.11A3.46,3.46,0,0,0,42.34,7a4,4,0,0,1-.93-1.5,4.11,4.11,0,0,1,.21-2.74,5.67,5.67,0,0,1,.71-1.33,3.75,3.75,0,0,0,.38-.51.81.81,0,0,1,1-.1.12.12,0,0,0,.17-.16C43.25-.45,42.41.15,41.59.4Zm.55,11c-.29.09-.54.24-.83.32a4.13,4.13,0,0,0-.45.17c-1.34.53-1.07-.32-.9-.75a.1.1,0,0,0,0,0A0,0,0,0,0,40,11l0,0c0-.1-.08-.14-.15-.1a.11.11,0,0,0-.13-.05h0a2.44,2.44,0,0,1-2.29-.3c-.18-.17-.34-.4-.53-.57a.85.85,0,0,0,.19-.19,1.71,1.71,0,0,0,.21-.4c.14-.36.62-.28.89-.28s.17-.24,0-.26a3,3,0,0,1-1.91-1,1.8,1.8,0,0,0-.44-.43c.49-.13.9-.48,1.5-.3a5.06,5.06,0,0,1,1.89,1.24,2.68,2.68,0,0,0-1.88-.51s0,0,0,0a9.24,9.24,0,0,1,3.67,1.82,3.14,3.14,0,0,0,.72.41,18.61,18.61,0,0,0-1.93-.58s0,0,0,0a10.34,10.34,0,0,0,2,.89,11.79,11.79,0,0,0,2,0h0C43.72,11.23,42.78,11.21,42.14,11.41Zm4.41,1.12a5.28,5.28,0,0,1-1.76-.33c-.43-.19-.41-.81-.64-1.17a.36.36,0,0,0,0-.11c.49.16,1,.25,1.48.39S46.32,12.05,46.55,12.53ZM46.93,9a1.49,1.49,0,0,0-1.69.12s0,0,0,0a1.55,1.55,0,0,1,1.25,0,4.1,4.1,0,0,1,.8.56,4.47,4.47,0,0,1-.83.91,1.34,1.34,0,0,1-.65.2,8.48,8.48,0,0,0-1.1-.29c-.24-.07-.39-.13-.56-.06l0,0h0a1.05,1.05,0,0,1-.06-.24.47.47,0,0,0,.07-.35.29.29,0,0,0,0-.09.39.39,0,0,0,.08-.1.78.78,0,0,0,.07-.38s0-.07,0-.11h0V9.15l0-.14.15-.32A2.15,2.15,0,0,1,46.93,9Zm-2.5-.46-.06,0h.11Zm-1.69-5.1a2,2,0,0,1,2.5-.62,2.85,2.85,0,0,1,.42.17l-.45-.14c-1.12-.34-1.87.43-2.26,1.36,0,0,0,0,0,0,.54-.91,1.22-1.6,2.37-1.06a7.83,7.83,0,0,1,.75.41c.6.38.54.91.59,1.52h0l-.17,0a1,1,0,0,0-.61-.15c-.55,0-.8.37-1.07.78A2.67,2.67,0,0,0,44.29,7c0,.17,0,.34,0,.51-.34-.22-.39-1-.42-1.27a2.39,2.39,0,0,1,.58-1.66,2.63,2.63,0,0,0-1,2.19,1.86,1.86,0,0,0,.34,1.07,5.22,5.22,0,0,0,.33.54l-.2-.1a11.82,11.82,0,0,1-1-.77L42.8,7.4a3.61,3.61,0,0,1-.58-1.06A3.82,3.82,0,0,1,42.74,3.44Zm.6-3a.69.69,0,0,0-.77.35,3.14,3.14,0,0,0-.55.54,3.53,3.53,0,0,0-1,1.81,6.17,6.17,0,0,0,.42,3.57,4.17,4.17,0,0,0,.5.88A4.19,4.19,0,0,1,41,6.73,3.05,3.05,0,0,1,40.28,5,4,4,0,0,0,41.45,8,3.87,3.87,0,0,0,44,9.23a1.34,1.34,0,0,1,0,.21.36.36,0,0,1-.1.25.22.22,0,0,0-.23.14l-.09,0c-.4-.1-.79-.13-1.18-.23A4.31,4.31,0,0,1,41,8.11a8.28,8.28,0,0,0-1.6-1.46c-.53-.48-1.17-1.87-.4-2.44.18-.13.21-.46.2-.78a5.87,5.87,0,0,0,.14-.68c.06-.34.38-.84.37-1a.19.19,0,0,0,.33.13A7.3,7.3,0,0,1,41.24.76a.18.18,0,0,0,.17.05C42,.67,42.78.16,43.34.47Z"/><path class="cls-2" d="M50,.61a.12.12,0,0,0,.17.16.81.81,0,0,1,1,.1,3.75,3.75,0,0,0,.38.51,6.07,6.07,0,0,1,.71,1.33,4.17,4.17,0,0,1,.21,2.74A4,4,0,0,1,51.52,7a3.46,3.46,0,0,0-.84-4.24,2.53,2.53,0,0,0-2.77-.11C46.72,3.2,46.7,4,46.84,5.24a.11.11,0,0,0,.07.11.13.13,0,0,0,.1.1h0a.09.09,0,0,0,.08,0s.08-.06.1-.12a.09.09,0,0,1,.06,0c.46-.08,1.3.85,1.44,1.09a3.29,3.29,0,0,1,.58,2.08l-.15-.09A1.7,1.7,0,0,0,48,8.18,2.14,2.14,0,0,0,46,9.53a.24.24,0,0,0,0,.22.47.47,0,0,0,.19.31s.08.1.13.12h0a2,2,0,0,0,1.12,1l.11,0c-.28.37-.19.91-.44,1.39a.08.08,0,0,0,.07.12,3.4,3.4,0,0,0,2-.28,1.74,1.74,0,0,0,.64-1.23.54.54,0,0,0,.17.08c.81.25,1.71.31,2.51.6.46.17,1.24.58,1.64.05a.56.56,0,0,0,.05-.69,1.09,1.09,0,0,1,.26,0,2.66,2.66,0,0,0,.89,0,1.78,1.78,0,0,0,1.17-.45h0a3.17,3.17,0,0,0,.34-.28,1.15,1.15,0,0,1,.23-.21l.1-.1a.15.15,0,0,0,.07,0,.74.74,0,0,1,.13-.12l0,0h0a.25.25,0,0,0,0-.39,2.82,2.82,0,0,1-.39-.29A4.13,4.13,0,0,0,56.79,9a1.55,1.55,0,0,0,.62-.29c.28-.23.38-.56.63-.8s.25-.25.38-.38a.29.29,0,0,0,0-.57A3.55,3.55,0,0,0,54.66,8a8.87,8.87,0,0,1-2.35,1.27,13.56,13.56,0,0,1,.92-1.17c.39-.39.84-.72,1.25-1.09a2.51,2.51,0,0,0,1-2.34c0-.14,0-.45-.18-.51-.44-.11-.46-1-.55-1.32a1.91,1.91,0,0,0-.64-1.4.18.18,0,0,0-.16,0A3.72,3.72,0,0,0,52.51.22a.18.18,0,0,0-.24.18C51.45.15,50.61-.45,50,.61Zm0,9.92h0a11.91,11.91,0,0,0,2,0,10.34,10.34,0,0,0,2-.89s0,0,0,0a19.38,19.38,0,0,0-1.93.58,2.94,2.94,0,0,0,.72-.41,9.35,9.35,0,0,1,3.68-1.82s0,0,0,0a2.69,2.69,0,0,0-1.89.51,5.18,5.18,0,0,1,1.9-1.24c.6-.18,1,.17,1.5.3a2,2,0,0,0-.45.43,3,3,0,0,1-1.91,1c-.16,0-.17.27,0,.26s.76-.08.89.28a1.75,1.75,0,0,0,.22.4.85.85,0,0,0,.19.19c-.2.17-.35.4-.54.57a2.42,2.42,0,0,1-2.28.3h0a.11.11,0,0,0-.13.05c-.07,0-.19,0-.15.1v0a.06.06,0,0,0,0,.08l0,0c.18.43.44,1.28-.89.75a4.13,4.13,0,0,0-.45-.17c-.29-.08-.55-.23-.83-.32C51.08,11.21,50.14,11.23,50,10.53Zm-1.83.78c.49-.14,1-.23,1.47-.39a.2.2,0,0,0,0,.11c-.23.36-.21,1-.64,1.17a5.29,5.29,0,0,1-1.77.33C47.54,12.05,47.61,11.48,48.21,11.31Zm1.18-2.62.15.32a.68.68,0,0,0,0,.14v.08h0a.52.52,0,0,1,0,.11.79.79,0,0,0,.08.38.39.39,0,0,0,.08.1.32.32,0,0,0,0,.09.52.52,0,0,0,.08.35l-.06.24h0l0,0a.81.81,0,0,0-.56.06,8.48,8.48,0,0,0-1.1.29,1.34,1.34,0,0,1-.65-.2,4.2,4.2,0,0,1-.83-.91c.27-.17.47-.45.79-.56a1.58,1.58,0,0,1,1.26,0s0,0,0,0A1.49,1.49,0,0,0,46.93,9,2.15,2.15,0,0,1,49.39,8.69Zm0-.2h.11l-.06,0Zm2.27-2.15a3.63,3.63,0,0,1-.59,1.06l-.11.09c-.3.25-.62.55-.94.77a1,1,0,0,1-.21.1,3.13,3.13,0,0,0,.33-.54,1.8,1.8,0,0,0,.35-1.07,2.62,2.62,0,0,0-1.06-2.19A2.3,2.3,0,0,1,50,6.22c0,.3-.08,1-.41,1.27a4.35,4.35,0,0,0,0-.51A2.49,2.49,0,0,0,49,5.68c-.27-.41-.52-.75-1.06-.78a1,1,0,0,0-.62.15l-.16,0h0c.05-.61,0-1.14.59-1.52a6.79,6.79,0,0,1,.75-.41c1.15-.54,1.83.15,2.36,1.06,0,0,0,0,0,0-.39-.93-1.15-1.7-2.26-1.36L48.2,3a2.75,2.75,0,0,1,.41-.17,2,2,0,0,1,2.51.62A3.87,3.87,0,0,1,51.64,6.34Zm.8-5.53a.2.2,0,0,0,.18-.05,7.3,7.3,0,0,1,1.23,1.13c.12.14.31,0,.33-.13,0,.15.3.65.37,1a5.87,5.87,0,0,0,.14.68c0,.32,0,.65.19.78.78.57.13,2-.39,2.44a8.64,8.64,0,0,0-1.61,1.46,4.19,4.19,0,0,1-1.42,1.51c-.39.1-.78.13-1.18.23l-.1,0A.21.21,0,0,0,50,9.69a.41.41,0,0,1-.11-.25,1.62,1.62,0,0,0,0-.21A3.85,3.85,0,0,0,52.4,8a4,4,0,0,0,1.18-3,3,3,0,0,1-.75,1.76,3.82,3.82,0,0,1-.95.89,4.74,4.74,0,0,0,.51-.88,6.26,6.26,0,0,0,.42-3.57,3.6,3.6,0,0,0-1-1.81,3.14,3.14,0,0,0-.55-.54.69.69,0,0,0-.77-.35C51.08.16,51.87.67,52.44.81Z"/><path class="cls-3" d="M21.69,12.38a3.32,3.32,0,0,0-3.41.38c-.45.49-.51,1.15-1,1.64s-1.25.59-.77-.19c-.76,0-.16,1.28,0,1.57s.2.6.36.9.56.38.85.59a2.1,2.1,0,0,1-.67-.78c-.18-.42,0-.64.11-1,.61.34,1.12-.31,1.36-.8.33-.65.56-1.36,1.34-1.54a4,4,0,0,1,1.87.24,13.81,13.81,0,0,1,1.68.41Z"/><path class="cls-4" d="M21.69,11.8a6.66,6.66,0,0,0-3.32-.57,3.57,3.57,0,0,0-2.46,1.52,4.64,4.64,0,0,0-.46,2.81c.18,1,1.08,1.43,2,1.78.24.09.35-.3.11-.39-1.05-.39-1.89-.73-2-2a3.3,3.3,0,0,1,1.32-2.67c1.46-1.11,3.15-.71,4.79-.38A0,0,0,0,0,21.69,11.8Z"/><path class="cls-5" d="M46.18,13.11a9.53,9.53,0,0,1-2.65,1.51c-1,.44-1.92,1.05-3,1.4a19.15,19.15,0,0,1-6.58.52,26.57,26.57,0,0,1-6.51-1,12.84,12.84,0,0,1-2.69-1.3,13.33,13.33,0,0,0-2.7-1.14s0,0,0,0a13.45,13.45,0,0,0,2.55,1.42,14.12,14.12,0,0,0,2.77,1.33,25.53,25.53,0,0,0,6.61,1,20.92,20.92,0,0,0,6.64-.63,31.92,31.92,0,0,0,3.31-1.53,7.79,7.79,0,0,0,2.49-1.38C46.55,13.19,46.33,13,46.18,13.11Z"/><path class="cls-6" d="M46.2,12.8c-.36.24-.82.3-1.21.51a6.21,6.21,0,0,1-1.26.52,19,19,0,0,1-2.6.23c.38.47-1,1.3-1.37,1.41a3.76,3.76,0,0,1-2,.18c-1.9-.4-3.45-1.72-5.14-2.51a7.4,7.4,0,0,0,4.7,3.06,8.35,8.35,0,0,0,4.86-.65c.81-.36,1.54-.88,2.35-1.17s1.82-.62,2.19-1.44Z"/><path class="cls-7" d="M40.13,14a3.9,3.9,0,0,1-2.75-.75A5.11,5.11,0,0,1,36.27,12c-.22-.34-.24-.88-.58-1.1-.83.91.84,2.66,1.53,3.12s2.78,1.12,3.19.22Z"/><path class="cls-8" d="M23.41,9.54a15,15,0,0,1,1.14,2.09,8.87,8.87,0,0,0,1.63,1.78c.74.75,3.44,2.74,3.54.61,0-.25,0-.5,0-.74.42,1.19,1.84,2,2.83,2.59a11,11,0,0,1-4.85-.78,13.73,13.73,0,0,1-4.09-2.52,4.71,4.71,0,0,0,1.47.69,9,9,0,0,1-1.55-2h0c.23.21.47.45.71.64-.25-.73-.5-1.5-.74-2.24Z"/><path class="cls-9" d="M38.17,16.12c-1.41,0-3.34.16-4.53-.68a7.13,7.13,0,0,0,1.63,1,5.19,5.19,0,0,0,2,.24c1.06-.06,2.88-.11,3.64-1Z"/><path class="cls-10" d="M22.29,9.24c.05,0-.26-.07-.2-.07-.58-.07-.64-1.22-.35-1.51.09-.09,0-.26,0-.36s.15-.44.26-.59a3.4,3.4,0,0,0,.3-.79c0-.06-.05-.13-.1-.07a1.85,1.85,0,0,0-.34.53c-.14.32-.37.41-.46.73,0,.09.12.35.07.38a.57.57,0,0,0-.24.33,1.59,1.59,0,0,0,.32,1.12c.08.14.09.23.25.31s.29,0,.43.08a0,0,0,0,0,.05,0s0,0,0-.05S22.3,9.24,22.29,9.24Z"/><path class="cls-11" d="M23.94,7.27a.51.51,0,0,0-.32-.17c-.25,0-.15,0-.15-.23a1,1,0,0,0-.45-.7,5.13,5.13,0,0,1-.68-.29s-.08,0-.09,0v0a.06.06,0,0,0,0,.06c.29.28,1,.51.89,1a.27.27,0,0,0,.11.32.53.53,0,0,0,.2.07c.31.07.27.35.28.56a.17.17,0,0,0,.12.15l.06,0A.08.08,0,0,0,24,8.06,1,1,0,0,0,23.94,7.27Z"/><path class="cls-12" d="M25.47,10.14c-.8-.48,0-1.05,0-1.63a1.74,1.74,0,0,0-.62-1.17.65.65,0,0,0-.8-.24c-.22.13-.1.51-.06.71h0c0-.2-.06-.82.48-.57.23.11.4.42.55.62.38.52-.07,1-.31,1.44s.14,1,.49,1.24A.23.23,0,0,0,25.47,10.14Z"/><path class="cls-13" d="M25,10.06v0Z"/><path class="cls-14" d="M25.64,9.89l-.15-.07-.06,0h0l-.11,0s0,0,0,0h0a.14.14,0,0,0-.25.09v0A.22.22,0,0,0,25,10l.06.12a.41.41,0,0,0,.11.07.19.19,0,0,0,.05.2.28.28,0,0,0,.38,0,.5.5,0,0,0,.14-.27A.26.26,0,0,0,25.64,9.89Z"/><path class="cls-15" d="M27.12,9.83a.83.83,0,0,0-.71-.59c-.11,0-.41-.05-.33-.27,0-.05.05-.12,0-.18a.3.3,0,0,0-.25-.19.49.49,0,0,0-.54.37s0,0,0,0a.43.43,0,0,1,.29-.28c.15-.07.27,0,.35.16a1,1,0,0,0-.06.23c0,.1.12.19.2.22.27.11.62.11.75.42s-.26.39-.41.58.07.36.22.23S27.18,10.17,27.12,9.83Z"/><path class="cls-16" d="M28.59,13.7c-.56.23-.61-1.14-.65-1.44s-.53-.85-.48-1.21c.09-.61-.07-1-.74-.69,0,0,0,0,0,0,.64,0,.29.83.52,1.13a3.19,3.19,0,0,1,.5,1.65c.06.4.47,1.22,1,.86C28.89,13.93,28.8,13.62,28.59,13.7Z"/><path class="cls-17" d="M28.8,13.57a.3.3,0,0,0-.16-.05c-.15,0-.3-.27-.39-.37s-.17-.38-.32-.52a.06.06,0,0,0-.06,0c-.17.2,0,.56.06.77a1.19,1.19,0,0,0,.47.57.31.31,0,0,0,.17.13h.05A.28.28,0,0,0,28.8,13.57Z"/><path class="cls-18" d="M32.38,14.12c-.83-.11-1-.9-1.35-1.54-.15-.28-.21-.92-.45-1.15s-.23-.25-.4-.21c-.45.11-.5-.28-.86-.38s-.61-.74-1.19-.41c-.14.09-.31.53-.4.62-.26.24-.2.35-.09.69a0,0,0,0,0,0,0h0s0,0,0,0,.33-.59.36-.64c.13-.24.25-.93.76-.22a2.23,2.23,0,0,0,1,.64h.05c.45-.12.7.35.77.74a10.55,10.55,0,0,0,.55,1.41,1.41,1.41,0,0,0,1.22,1C32.73,14.69,32.72,14.16,32.38,14.12Z"/><path class="cls-19" d="M32.74,11.69a.17.17,0,0,0-.18-.13,1.24,1.24,0,0,0-.83-.45c-.44,0-.45.39-.43.74a1,1,0,0,0,0,.25.11.11,0,0,0-.08,0c-.13,0-.49,0-.47.22a0,0,0,0,0,.09,0s.12,0,.15,0,.13.06.18.16.28.27.42.08,0-.48-.05-.63a1.23,1.23,0,0,1-.07-.42c0-.29.82,0,.87.27a.49.49,0,0,0,0,.12c0,.24.37.3.39,0A.37.37,0,0,0,32.74,11.69Z"/><path class="cls-20" d="M34.31,12.86a.29.29,0,0,0-.06-.34,1,1,0,0,1-.27-.46,1.06,1.06,0,0,0-.57-.62c-.21-.07-.92.08-.83.4a.08.08,0,0,0,.12.05,1,1,0,0,1,.36-.19c.26,0,.34-.07.52.17a1.27,1.27,0,0,1,.23.5c0,.18.21.28.25.47s.13.2.21.32a.25.25,0,1,0,0-.3Z"/><path class="cls-21" d="M36.74,13.29c-.37-.48-1.13-1.14-1.8-1a1.19,1.19,0,0,0-.59.3c-.15.12-.06.21,0,.33s.06.09.11.08h0a.09.09,0,0,0,.06-.17s0,0,0,0,0,0,.08-.1a.82.82,0,0,1,.48-.14A1.64,1.64,0,0,1,36,13c.21.2.32.41.62.46A.1.1,0,0,0,36.74,13.29Z"/><path class="cls-22" d="M43.41,13.11a11.71,11.71,0,0,1-4.09,0,6,6,0,0,1-3.52-2.13s0,0,0,0a4.43,4.43,0,0,0,1.59,1.63,5.64,5.64,0,0,0,2.57.82,18.55,18.55,0,0,0,3,0,10.63,10.63,0,0,0,1.58-.36c.36-.12,1.84-1,1.84.06,0,.15.24.19.27,0C47,11.6,43.83,13,43.41,13.11Z"/><path class="cls-23" d="M22.65,12.31,22.28,12c-.35-.21-.29-.52.19-.92a.76.76,0,0,0,.34-.11.08.08,0,0,0,0-.1c-.08-.42-.68-.72-.93-1.06-.05-.08-.53-.41-.1-.46.16,0,.32,0,.48,0s0,0,0-.05,0,0,0,0a0,0,0,0,0,0,0c0,.12-.76-.19-.85.15-.05.18.07.29.19.4s.32.45.44.59.58.52.4.58-1,.19-.67.69a8,8,0,0,0,.84,1c.2.23.34.49.65.53.05,0,.07,0,.06-.08C23.27,12.78,22.87,12.55,22.65,12.31Z"/><path class="cls-24" d="M22.35,12.11c-.17-.07-.27-.22-.44-.27s-.36-.18-.56-.26a2.37,2.37,0,0,0-1.21-.13h0a2.84,2.84,0,0,1,1.5.43c.25.14.41.42.7.31C22.39,12.17,22.39,12.12,22.35,12.11Z"/><path class="cls-25" d="M72.12,12.38a3.32,3.32,0,0,1,3.41.38c.45.49.51,1.15,1,1.64s1.25.59.77-.19c.76,0,.16,1.28,0,1.57s-.2.6-.36.9-.56.38-.85.59a2,2,0,0,0,.67-.78c.18-.42,0-.64-.11-1-.61.34-1.12-.31-1.36-.8-.33-.65-.56-1.36-1.34-1.54a4,4,0,0,0-1.87.24,13.81,13.81,0,0,0-1.68.41Z"/><path class="cls-26" d="M72.12,11.8a6.68,6.68,0,0,1,3.32-.57,3.61,3.61,0,0,1,2.47,1.52,4.71,4.71,0,0,1,.45,2.81c-.18,1-1.08,1.43-2,1.78-.24.09-.34-.3-.11-.39,1-.39,1.89-.73,2-2a3.3,3.3,0,0,0-1.32-2.67c-1.46-1.11-3.15-.71-4.79-.38A0,0,0,0,1,72.12,11.8Z"/><path class="cls-27" d="M47.63,13.11a9.53,9.53,0,0,0,2.65,1.51c1,.44,1.92,1.05,3,1.4a19.15,19.15,0,0,0,6.58.52,26.57,26.57,0,0,0,6.51-1A12.84,12.84,0,0,0,69,14.2a13.18,13.18,0,0,1,2.71-1.14s0,0,0,0a13.15,13.15,0,0,1-2.55,1.42,14.12,14.12,0,0,1-2.77,1.33,25.53,25.53,0,0,1-6.61,1,20.92,20.92,0,0,1-6.64-.63,31.92,31.92,0,0,1-3.31-1.53,7.64,7.64,0,0,1-2.48-1.38C47.26,13.19,47.48,13,47.63,13.11Z"/><path class="cls-28" d="M47.61,12.8c.36.24.82.3,1.21.51a6.21,6.21,0,0,0,1.26.52,19,19,0,0,0,2.6.23c-.38.47,1,1.3,1.37,1.41a3.8,3.8,0,0,0,2,.18c1.89-.4,3.44-1.72,5.13-2.51a7.4,7.4,0,0,1-4.7,3.06,8.35,8.35,0,0,1-4.86-.65c-.81-.36-1.54-.88-2.35-1.17s-1.81-.62-2.19-1.44Z"/><path class="cls-29" d="M53.68,14a3.94,3.94,0,0,0,2.76-.75A5.29,5.29,0,0,0,57.54,12c.22-.34.24-.88.58-1.1.83.91-.84,2.66-1.53,3.12s-2.78,1.12-3.19.22Z"/><path class="cls-30" d="M70.4,9.54a14,14,0,0,0-1.13,2.09,9.23,9.23,0,0,1-1.64,1.78c-.74.75-3.43,2.74-3.54.61,0-.25,0-.5,0-.74-.42,1.19-1.84,2-2.83,2.59a11,11,0,0,0,4.85-.78,13.73,13.73,0,0,0,4.09-2.52,4.71,4.71,0,0,1-1.47.69,9,9,0,0,0,1.55-2h0c-.23.21-.47.45-.71.64.26-.73.5-1.5.74-2.24Z"/><path class="cls-31" d="M55.64,16.12c1.41,0,3.34.16,4.53-.68a7.13,7.13,0,0,1-1.63,1,5.11,5.11,0,0,1-2,.24c-1.07-.06-2.89-.11-3.65-1Z"/><path class="cls-32" d="M71.52,9.24s.27-.07.2-.07c.58-.07.64-1.22.36-1.51-.1-.09,0-.26,0-.36s-.16-.44-.27-.59a3.4,3.4,0,0,1-.3-.79c0-.06,0-.13.1-.07a1.85,1.85,0,0,1,.34.53c.14.32.37.41.46.73,0,.09-.12.35-.07.38a.57.57,0,0,1,.24.33,1.63,1.63,0,0,1-.31,1.12c-.09.14-.1.23-.26.31s-.29,0-.43.08,0,0,0,0,0,0,0-.05S71.51,9.24,71.52,9.24Z"/><path class="cls-33" d="M69.88,7.27a.48.48,0,0,1,.31-.17c.25,0,.15,0,.15-.23a1,1,0,0,1,.45-.7,6,6,0,0,0,.69-.29,0,0,0,0,1,.08,0s0,0,0,0a.06.06,0,0,1,0,.06c-.29.28-1,.51-.88,1a.28.28,0,0,1-.12.32.48.48,0,0,1-.2.07c-.31.07-.27.35-.28.56a.17.17,0,0,1-.12.15l-.06,0a.08.08,0,0,1-.09-.06A.92.92,0,0,1,69.88,7.27Z"/><path class="cls-34" d="M68.34,10.14c.8-.48,0-1.05,0-1.63a1.74,1.74,0,0,1,.62-1.17.65.65,0,0,1,.8-.24c.22.13.1.51.06.71h0c0-.2,0-.82-.49-.57-.23.11-.4.42-.55.62-.38.52.08,1,.32,1.44s-.15,1-.5,1.24A.23.23,0,0,1,68.34,10.14Z"/><path class="cls-35" d="M68.8,10.06v0Z"/><path class="cls-36" d="M68.06,10.16a.46.46,0,0,0,.15.27.27.27,0,0,0,.37,0,.19.19,0,0,0,0-.2.41.41,0,0,0,.11-.07L68.8,10a.19.19,0,0,0,0-.18v0a.14.14,0,0,0-.25-.09h0c-.07,0-.08,0,0,0l-.11,0h0l-.06,0-.15.07A.27.27,0,0,0,68.06,10.16Z"/><path class="cls-37" d="M66.69,9.83a.84.84,0,0,1,.72-.59c.11,0,.4-.05.33-.27,0-.05-.06-.12,0-.18A.3.3,0,0,1,68,8.6a.49.49,0,0,1,.54.37s0,0,0,0a.41.41,0,0,0-.29-.28c-.15-.07-.27,0-.35.16a1,1,0,0,1,.06.23c0,.1-.12.19-.2.22-.27.11-.62.11-.74.42s.25.39.4.58a.16.16,0,0,1-.22.23C66.9,10.34,66.63,10.17,66.69,9.83Z"/><path class="cls-38" d="M65.22,13.7c.57.23.61-1.14.65-1.44s.53-.85.48-1.21c-.09-.61.07-1,.74-.69,0,0,0,0,0,0-.64,0-.29.83-.52,1.13a3.19,3.19,0,0,0-.5,1.65c-.06.4-.47,1.22-1,.86C64.92,13.93,65,13.62,65.22,13.7Z"/><path class="cls-39" d="M65,13.57a.33.33,0,0,1,.16-.05c.15,0,.3-.27.39-.37s.17-.38.33-.52a0,0,0,0,1,0,0c.17.2,0,.56-.06.77a1.19,1.19,0,0,1-.47.57.31.31,0,0,1-.17.13h0A.28.28,0,0,1,65,13.57Z"/><path class="cls-40" d="M61.43,14.12c.83-.11,1-.9,1.35-1.54.15-.28.21-.92.45-1.15s.23-.25.4-.21c.45.11.5-.28.86-.38s.61-.74,1.19-.41c.14.09.31.53.4.62.26.24.21.35.09.69,0,0,0,0,0,0h0s0,0,0,0-.33-.59-.35-.64c-.14-.24-.26-.93-.77-.22a2.23,2.23,0,0,1-1,.64h0c-.45-.12-.7.35-.77.74a10.55,10.55,0,0,1-.55,1.41,1.41,1.41,0,0,1-1.22,1C61.08,14.69,61.09,14.16,61.43,14.12Z"/><path class="cls-41" d="M61.07,11.69a.17.17,0,0,1,.18-.13,1.24,1.24,0,0,1,.83-.45c.44,0,.45.39.43.74a1,1,0,0,1,0,.25.13.13,0,0,1,.08,0c.14,0,.49,0,.47.22a0,0,0,0,1-.09,0s-.12,0-.15,0-.13.06-.18.16-.27.27-.42.08,0-.48,0-.63a1.23,1.23,0,0,0,.07-.42c0-.29-.82,0-.87.27a.49.49,0,0,1,0,.12c0,.24-.37.3-.39,0A.37.37,0,0,1,61.07,11.69Z"/><path class="cls-42" d="M59.5,12.86a.29.29,0,0,1,.06-.34c.17-.13.19-.27.27-.46a1.09,1.09,0,0,1,.57-.62c.21-.07.92.08.83.4a.08.08,0,0,1-.12.05,1,1,0,0,0-.36-.19c-.26,0-.34-.07-.51.17a1.16,1.16,0,0,0-.24.5c0,.18-.21.28-.25.47s-.12.2-.21.32a.24.24,0,1,1,0-.3Z"/><path class="cls-43" d="M57.16,13.46c.3-.05.41-.26.62-.46a1.64,1.64,0,0,1,.93-.5.8.8,0,0,1,.48.14c.12.08.12,0,.08.1s0,0,0,0a.1.1,0,0,0,.06.17h0c.05,0,.09,0,.11-.08s.13-.21,0-.33a1.19,1.19,0,0,0-.59-.3c-.66-.09-1.43.57-1.8,1A.1.1,0,0,0,57.16,13.46Z"/><path class="cls-44" d="M50.4,13.11a11.71,11.71,0,0,0,4.09,0A6.06,6.06,0,0,0,58,10.93s0,0,0,0a4.43,4.43,0,0,1-1.59,1.63,5.64,5.64,0,0,1-2.57.82,18.55,18.55,0,0,1-3,0,10.63,10.63,0,0,1-1.58-.36c-.36-.12-1.84-1-1.84.06a.14.14,0,0,1-.27,0C46.84,11.6,50,13,50.4,13.11Z"/><path class="cls-45" d="M71.16,12.31l.37-.28c.35-.21.29-.52-.19-.92A.8.8,0,0,1,71,11a.08.08,0,0,1,0-.1c.08-.42.68-.72.93-1.06.06-.08.53-.41.1-.46-.16,0-.32,0-.48,0s0,0,0-.05,0,0,0,0a0,0,0,0,1,0,0c0,.12.76-.19.85.15,0,.18-.07.29-.19.4s-.32.45-.44.59-.58.52-.4.58,1,.19.68.69a9,9,0,0,1-.85,1c-.2.23-.34.49-.65.53,0,0-.07,0-.06-.08C70.54,12.78,70.94,12.55,71.16,12.31Z"/><path class="cls-46" d="M71.46,12.11c.17-.07.28-.22.44-.27s.36-.18.56-.26a2.37,2.37,0,0,1,1.21-.13h0a2.85,2.85,0,0,0-1.51.43c-.25.14-.41.42-.7.31C71.42,12.17,71.42,12.12,71.46,12.11Z"/><path class="cls-47" d="M16,12.85H1.93v1.09H15.54A2.51,2.51,0,0,1,16,12.85Z"/><path class="cls-48" d="M77.84,12.85a2.69,2.69,0,0,1,.31,1.09H91.88V12.85Z"/><path class="cls-49" d="M3.86,13.39a1.93,1.93,0,1,1-1.93-1.93A1.92,1.92,0,0,1,3.86,13.39Z"/><path class="cls-50" d="M93.75,13.39a1.94,1.94,0,1,1-1.94-1.93A1.93,1.93,0,0,1,93.75,13.39Z"/></g></g></svg>